# xmcd
#
# Track frame offsets:
#	150
#	12516
#	26820
#	46024
#	60667
#	79982
#	91890
#	104044
#	115435
#	129130
#	145672
#	159223
#
# Disc length: 2333 seconds
#
# Revision: 2
# Processed by: cddbd v1.5.2PL0 Copyright (c) Steve Scherf et al.
# Submitted via: audiograbber 1.83.01
#
DISCID=96091b0c
DTITLE=Blue Highway - The Game
DYEAR=2011
DGENRE=Bluegrass
TTITLE0=The Game
TTITLE1=Remind Me of You
TTITLE2=Dogtown
TTITLE3=All the Things You Do
TTITLE4=A Change of Faith in Tennessee
TTITLE5=Talk is Cheap
TTITLE6=Church Bell Wedding Blues
TTITLE7=Where Jasmine Grows
TTITLE8=My Last Day in the Mine
TTITLE9=Just to Have a Job
TTITLE10=Funny Farm
TTITLE11=Hick's Farewell
EXTD=
EXTT0=
EXTT1=
EXTT2=
EXTT3=
EXTT4=
EXTT5=
EXTT6=
EXTT7=
EXTT8=
EXTT9=
EXTT10=
EXTT11=
PLAYORDER=
